<mxfile host="app.diagrams.net" modified="2023-10-03T20:17:19.620Z" agent="Mozilla/5.0 (Windows NT 10.0; Win64; x64) AppleWebKit/537.36 (KHTML, like Gecko) Chrome/117.0.0.0 Safari/537.36" etag="TtlyEiDSQ4GLyoUUscUI" version="22.0.2" type="device">
  <diagram name="Page-1" id="R-vtYA2fxaq1COLgrQGK">
    <mxGraphModel dx="1290" dy="542" grid="1" gridSize="10" guides="1" tooltips="1" connect="1" arrows="1" fold="1" page="1" pageScale="1" pageWidth="850" pageHeight="1100" math="0" shadow="0">
      <root>
        <mxCell id="0" />
        <mxCell id="1" parent="0" />
        <mxCell id="9Nt-A7J87u1WiCCcCLA0-6" value="Client" style="whiteSpace=wrap;html=1;align=center;" parent="1" vertex="1">
          <mxGeometry x="590" y="500" width="100" height="40" as="geometry" />
        </mxCell>
        <mxCell id="9Nt-A7J87u1WiCCcCLA0-7" value="ServiceProvider" style="whiteSpace=wrap;html=1;align=center;" parent="1" vertex="1">
          <mxGeometry x="410" y="500" width="100" height="40" as="geometry" />
        </mxCell>
        <mxCell id="9Nt-A7J87u1WiCCcCLA0-8" value="Admin" style="whiteSpace=wrap;html=1;align=center;" parent="1" vertex="1">
          <mxGeometry x="110" y="500" width="100" height="40" as="geometry" />
        </mxCell>
        <mxCell id="9Nt-A7J87u1WiCCcCLA0-9" value="Credential" style="whiteSpace=wrap;html=1;align=center;" parent="1" vertex="1">
          <mxGeometry x="500" y="1000" width="100" height="40" as="geometry" />
        </mxCell>
        <mxCell id="9Nt-A7J87u1WiCCcCLA0-10" value="UserName" style="ellipse;whiteSpace=wrap;html=1;align=center;" parent="1" vertex="1">
          <mxGeometry x="500" y="1060" width="100" height="40" as="geometry" />
        </mxCell>
        <mxCell id="9Nt-A7J87u1WiCCcCLA0-11" value="HashedPassword" style="ellipse;whiteSpace=wrap;html=1;align=center;" parent="1" vertex="1">
          <mxGeometry x="600" y="1060" width="100" height="40" as="geometry" />
        </mxCell>
        <mxCell id="9Nt-A7J87u1WiCCcCLA0-12" value="" style="endArrow=none;html=1;rounded=0;exitX=0.5;exitY=1;exitDx=0;exitDy=0;entryX=0.5;entryY=0;entryDx=0;entryDy=0;" parent="1" source="9Nt-A7J87u1WiCCcCLA0-9" target="9Nt-A7J87u1WiCCcCLA0-10" edge="1">
          <mxGeometry relative="1" as="geometry">
            <mxPoint x="460" y="930" as="sourcePoint" />
            <mxPoint x="620" y="930" as="targetPoint" />
          </mxGeometry>
        </mxCell>
        <mxCell id="9Nt-A7J87u1WiCCcCLA0-13" value="" style="endArrow=none;html=1;rounded=0;entryX=0.5;entryY=1;entryDx=0;entryDy=0;exitX=0.5;exitY=0;exitDx=0;exitDy=0;" parent="1" source="9Nt-A7J87u1WiCCcCLA0-11" target="9Nt-A7J87u1WiCCcCLA0-9" edge="1">
          <mxGeometry relative="1" as="geometry">
            <mxPoint x="460" y="930" as="sourcePoint" />
            <mxPoint x="620" y="930" as="targetPoint" />
          </mxGeometry>
        </mxCell>
        <mxCell id="9Nt-A7J87u1WiCCcCLA0-17" value="LogsInWith" style="shape=rhombus;perimeter=rhombusPerimeter;whiteSpace=wrap;html=1;align=center;" parent="1" vertex="1">
          <mxGeometry x="490" y="890" width="120" height="60" as="geometry" />
        </mxCell>
        <mxCell id="9Nt-A7J87u1WiCCcCLA0-18" value="" style="endArrow=none;html=1;rounded=0;entryX=0.5;entryY=0;entryDx=0;entryDy=0;exitX=0.5;exitY=1;exitDx=0;exitDy=0;" parent="1" source="9Nt-A7J87u1WiCCcCLA0-17" target="9Nt-A7J87u1WiCCcCLA0-9" edge="1">
          <mxGeometry relative="1" as="geometry">
            <mxPoint x="460" y="930" as="sourcePoint" />
            <mxPoint x="620" y="930" as="targetPoint" />
          </mxGeometry>
        </mxCell>
        <mxCell id="9Nt-A7J87u1WiCCcCLA0-20" value="" style="endArrow=none;html=1;rounded=0;entryX=0.5;entryY=1;entryDx=0;entryDy=0;exitX=0.5;exitY=0;exitDx=0;exitDy=0;" parent="1" source="Jl5cKJMcSYmuPTz_EsKj-6" target="9Nt-A7J87u1WiCCcCLA0-7" edge="1">
          <mxGeometry relative="1" as="geometry">
            <mxPoint x="460" y="610" as="sourcePoint" />
            <mxPoint x="530" y="680" as="targetPoint" />
          </mxGeometry>
        </mxCell>
        <mxCell id="9Nt-A7J87u1WiCCcCLA0-22" value="AppointmentSlot" style="whiteSpace=wrap;html=1;align=center;" parent="1" vertex="1">
          <mxGeometry x="500" y="220" width="100" height="40" as="geometry" />
        </mxCell>
        <mxCell id="9Nt-A7J87u1WiCCcCLA0-23" value="Start" style="ellipse;whiteSpace=wrap;html=1;align=center;" parent="1" vertex="1">
          <mxGeometry x="500" y="120" width="100" height="40" as="geometry" />
        </mxCell>
        <mxCell id="9Nt-A7J87u1WiCCcCLA0-24" value="End" style="ellipse;whiteSpace=wrap;html=1;align=center;" parent="1" vertex="1">
          <mxGeometry x="600" y="120" width="100" height="40" as="geometry" />
        </mxCell>
        <mxCell id="9Nt-A7J87u1WiCCcCLA0-25" value="" style="endArrow=none;html=1;rounded=0;entryX=0.5;entryY=0;entryDx=0;entryDy=0;exitX=0.5;exitY=1;exitDx=0;exitDy=0;" parent="1" source="9Nt-A7J87u1WiCCcCLA0-23" target="9Nt-A7J87u1WiCCcCLA0-22" edge="1">
          <mxGeometry relative="1" as="geometry">
            <mxPoint x="180" y="-360" as="sourcePoint" />
            <mxPoint x="310" y="-10" as="targetPoint" />
          </mxGeometry>
        </mxCell>
        <mxCell id="9Nt-A7J87u1WiCCcCLA0-26" value="" style="endArrow=none;html=1;rounded=0;entryX=0.5;entryY=1;entryDx=0;entryDy=0;exitX=0.5;exitY=0;exitDx=0;exitDy=0;" parent="1" source="9Nt-A7J87u1WiCCcCLA0-22" target="9Nt-A7J87u1WiCCcCLA0-24" edge="1">
          <mxGeometry relative="1" as="geometry">
            <mxPoint x="230" y="-210" as="sourcePoint" />
            <mxPoint x="310" y="-10" as="targetPoint" />
          </mxGeometry>
        </mxCell>
        <mxCell id="9Nt-A7J87u1WiCCcCLA0-27" value="BookedBy" style="shape=rhombus;perimeter=rhombusPerimeter;whiteSpace=wrap;html=1;align=center;" parent="1" vertex="1">
          <mxGeometry x="580" y="320" width="120" height="60" as="geometry" />
        </mxCell>
        <mxCell id="9Nt-A7J87u1WiCCcCLA0-28" value="ProvidedBy" style="shape=rhombus;perimeter=rhombusPerimeter;whiteSpace=wrap;html=1;align=center;" parent="1" vertex="1">
          <mxGeometry x="400" y="320" width="120" height="60" as="geometry" />
        </mxCell>
        <mxCell id="9Nt-A7J87u1WiCCcCLA0-29" value="" style="endArrow=none;html=1;rounded=0;entryX=0.5;entryY=0;entryDx=0;entryDy=0;exitX=0.5;exitY=1;exitDx=0;exitDy=0;" parent="1" source="9Nt-A7J87u1WiCCcCLA0-22" target="9Nt-A7J87u1WiCCcCLA0-28" edge="1">
          <mxGeometry relative="1" as="geometry">
            <mxPoint x="370" y="180" as="sourcePoint" />
            <mxPoint x="530" y="180" as="targetPoint" />
          </mxGeometry>
        </mxCell>
        <mxCell id="9Nt-A7J87u1WiCCcCLA0-30" value="" style="endArrow=none;html=1;rounded=0;entryX=0.5;entryY=0;entryDx=0;entryDy=0;exitX=0.5;exitY=1;exitDx=0;exitDy=0;" parent="1" source="9Nt-A7J87u1WiCCcCLA0-22" target="9Nt-A7J87u1WiCCcCLA0-27" edge="1">
          <mxGeometry relative="1" as="geometry">
            <mxPoint x="370" y="380" as="sourcePoint" />
            <mxPoint x="530" y="380" as="targetPoint" />
          </mxGeometry>
        </mxCell>
        <mxCell id="9Nt-A7J87u1WiCCcCLA0-31" value="" style="endArrow=none;html=1;rounded=0;entryX=0.5;entryY=1;entryDx=0;entryDy=0;exitX=0.5;exitY=0;exitDx=0;exitDy=0;" parent="1" source="9Nt-A7J87u1WiCCcCLA0-6" target="9Nt-A7J87u1WiCCcCLA0-27" edge="1">
          <mxGeometry relative="1" as="geometry">
            <mxPoint x="370" y="280" as="sourcePoint" />
            <mxPoint x="530" y="280" as="targetPoint" />
          </mxGeometry>
        </mxCell>
        <mxCell id="9Nt-A7J87u1WiCCcCLA0-32" value="" style="endArrow=none;html=1;rounded=0;entryX=0.5;entryY=0;entryDx=0;entryDy=0;exitX=0.5;exitY=1;exitDx=0;exitDy=0;" parent="1" source="9Nt-A7J87u1WiCCcCLA0-28" target="9Nt-A7J87u1WiCCcCLA0-7" edge="1">
          <mxGeometry relative="1" as="geometry">
            <mxPoint x="370" y="280" as="sourcePoint" />
            <mxPoint x="530" y="280" as="targetPoint" />
          </mxGeometry>
        </mxCell>
        <mxCell id="9Nt-A7J87u1WiCCcCLA0-33" value="&lt;b&gt;1&lt;/b&gt;" style="text;html=1;strokeColor=none;fillColor=none;align=center;verticalAlign=middle;whiteSpace=wrap;rounded=0;" parent="1" vertex="1">
          <mxGeometry x="550" y="850" width="20" height="20" as="geometry" />
        </mxCell>
        <mxCell id="9Nt-A7J87u1WiCCcCLA0-34" value="&lt;b&gt;M&lt;/b&gt;" style="text;html=1;strokeColor=none;fillColor=none;align=center;verticalAlign=middle;whiteSpace=wrap;rounded=0;" parent="1" vertex="1">
          <mxGeometry x="70" y="70" width="20" height="20" as="geometry" />
        </mxCell>
        <mxCell id="9Nt-A7J87u1WiCCcCLA0-42" value="AppointmentID" style="ellipse;whiteSpace=wrap;html=1;align=center;fontStyle=4;" parent="1" vertex="1">
          <mxGeometry x="400" y="120" width="100" height="40" as="geometry" />
        </mxCell>
        <mxCell id="9Nt-A7J87u1WiCCcCLA0-43" value="" style="endArrow=none;html=1;rounded=0;exitX=0.5;exitY=1;exitDx=0;exitDy=0;entryX=0.5;entryY=0;entryDx=0;entryDy=0;" parent="1" source="9Nt-A7J87u1WiCCcCLA0-42" target="9Nt-A7J87u1WiCCcCLA0-22" edge="1">
          <mxGeometry relative="1" as="geometry">
            <mxPoint x="440" y="100" as="sourcePoint" />
            <mxPoint x="600" y="100" as="targetPoint" />
          </mxGeometry>
        </mxCell>
        <mxCell id="9Nt-A7J87u1WiCCcCLA0-56" value="Category" style="ellipse;whiteSpace=wrap;html=1;align=center;" parent="1" vertex="1">
          <mxGeometry x="250" y="500" width="100" height="40" as="geometry" />
        </mxCell>
        <mxCell id="9Nt-A7J87u1WiCCcCLA0-57" value="" style="endArrow=none;html=1;rounded=0;exitX=1;exitY=0.5;exitDx=0;exitDy=0;entryX=0;entryY=0.5;entryDx=0;entryDy=0;" parent="1" source="9Nt-A7J87u1WiCCcCLA0-56" target="9Nt-A7J87u1WiCCcCLA0-7" edge="1">
          <mxGeometry relative="1" as="geometry">
            <mxPoint x="360" y="580" as="sourcePoint" />
            <mxPoint x="520" y="580" as="targetPoint" />
          </mxGeometry>
        </mxCell>
        <mxCell id="9Nt-A7J87u1WiCCcCLA0-58" value="ProviderTitle" style="ellipse;whiteSpace=wrap;html=1;align=center;" parent="1" vertex="1">
          <mxGeometry x="250" y="540" width="100" height="40" as="geometry" />
        </mxCell>
        <mxCell id="9Nt-A7J87u1WiCCcCLA0-59" value="ClientName" style="ellipse;whiteSpace=wrap;html=1;align=center;" parent="1" vertex="1">
          <mxGeometry x="750" y="460" width="100" height="40" as="geometry" />
        </mxCell>
        <mxCell id="9Nt-A7J87u1WiCCcCLA0-60" value="ClientID" style="ellipse;whiteSpace=wrap;html=1;align=center;fontStyle=4;" parent="1" vertex="1">
          <mxGeometry x="750" y="500" width="100" height="40" as="geometry" />
        </mxCell>
        <mxCell id="9Nt-A7J87u1WiCCcCLA0-61" value="" style="endArrow=none;html=1;rounded=0;entryX=0;entryY=0.5;entryDx=0;entryDy=0;exitX=1;exitY=0.5;exitDx=0;exitDy=0;" parent="1" source="9Nt-A7J87u1WiCCcCLA0-6" target="9Nt-A7J87u1WiCCcCLA0-60" edge="1">
          <mxGeometry relative="1" as="geometry">
            <mxPoint x="360" y="580" as="sourcePoint" />
            <mxPoint x="520" y="580" as="targetPoint" />
          </mxGeometry>
        </mxCell>
        <mxCell id="9Nt-A7J87u1WiCCcCLA0-62" value="" style="endArrow=none;html=1;rounded=0;entryX=0;entryY=0.5;entryDx=0;entryDy=0;exitX=1;exitY=0.5;exitDx=0;exitDy=0;" parent="1" source="9Nt-A7J87u1WiCCcCLA0-6" target="9Nt-A7J87u1WiCCcCLA0-59" edge="1">
          <mxGeometry relative="1" as="geometry">
            <mxPoint x="360" y="580" as="sourcePoint" />
            <mxPoint x="520" y="580" as="targetPoint" />
          </mxGeometry>
        </mxCell>
        <mxCell id="9Nt-A7J87u1WiCCcCLA0-63" value="ProviderID" style="ellipse;whiteSpace=wrap;html=1;align=center;fontStyle=4;" parent="1" vertex="1">
          <mxGeometry x="250" y="460" width="100" height="40" as="geometry" />
        </mxCell>
        <mxCell id="9Nt-A7J87u1WiCCcCLA0-64" value="" style="endArrow=none;html=1;rounded=0;entryX=0;entryY=0.5;entryDx=0;entryDy=0;exitX=1;exitY=0.5;exitDx=0;exitDy=0;" parent="1" source="9Nt-A7J87u1WiCCcCLA0-63" target="9Nt-A7J87u1WiCCcCLA0-7" edge="1">
          <mxGeometry relative="1" as="geometry">
            <mxPoint x="360" y="580" as="sourcePoint" />
            <mxPoint x="520" y="580" as="targetPoint" />
          </mxGeometry>
        </mxCell>
        <mxCell id="9Nt-A7J87u1WiCCcCLA0-65" value="" style="endArrow=none;html=1;rounded=0;entryX=0;entryY=0.5;entryDx=0;entryDy=0;exitX=1;exitY=0.5;exitDx=0;exitDy=0;" parent="1" source="9Nt-A7J87u1WiCCcCLA0-58" target="9Nt-A7J87u1WiCCcCLA0-7" edge="1">
          <mxGeometry relative="1" as="geometry">
            <mxPoint x="360" y="580" as="sourcePoint" />
            <mxPoint x="520" y="580" as="targetPoint" />
          </mxGeometry>
        </mxCell>
        <mxCell id="9Nt-A7J87u1WiCCcCLA0-66" value="&lt;span style=&quot;border-bottom: 1px dotted&quot;&gt;ClientID&lt;/span&gt;" style="ellipse;whiteSpace=wrap;html=1;align=center;" parent="1" vertex="1">
          <mxGeometry x="750" y="310" width="100" height="40" as="geometry" />
        </mxCell>
        <mxCell id="9Nt-A7J87u1WiCCcCLA0-67" value="&lt;span style=&quot;border-bottom: 1px dotted&quot;&gt;AppointmentID&lt;/span&gt;" style="ellipse;whiteSpace=wrap;html=1;align=center;" parent="1" vertex="1">
          <mxGeometry x="750" y="350" width="100" height="40" as="geometry" />
        </mxCell>
        <mxCell id="9Nt-A7J87u1WiCCcCLA0-68" value="" style="endArrow=none;html=1;rounded=0;entryX=0;entryY=0.5;entryDx=0;entryDy=0;exitX=1;exitY=0.5;exitDx=0;exitDy=0;" parent="1" source="9Nt-A7J87u1WiCCcCLA0-27" target="9Nt-A7J87u1WiCCcCLA0-67" edge="1">
          <mxGeometry relative="1" as="geometry">
            <mxPoint x="360" y="480" as="sourcePoint" />
            <mxPoint x="520" y="480" as="targetPoint" />
          </mxGeometry>
        </mxCell>
        <mxCell id="9Nt-A7J87u1WiCCcCLA0-69" value="" style="endArrow=none;html=1;rounded=0;entryX=0;entryY=0.5;entryDx=0;entryDy=0;exitX=1;exitY=0.5;exitDx=0;exitDy=0;" parent="1" source="9Nt-A7J87u1WiCCcCLA0-27" target="9Nt-A7J87u1WiCCcCLA0-66" edge="1">
          <mxGeometry relative="1" as="geometry">
            <mxPoint x="360" y="480" as="sourcePoint" />
            <mxPoint x="520" y="480" as="targetPoint" />
          </mxGeometry>
        </mxCell>
        <mxCell id="9Nt-A7J87u1WiCCcCLA0-71" value="&lt;span style=&quot;border-bottom: 1px dotted&quot;&gt;ProviderID&lt;/span&gt;" style="ellipse;whiteSpace=wrap;html=1;align=center;" parent="1" vertex="1">
          <mxGeometry x="250" y="310" width="100" height="40" as="geometry" />
        </mxCell>
        <mxCell id="9Nt-A7J87u1WiCCcCLA0-72" value="&lt;span style=&quot;border-bottom: 1px dotted&quot;&gt;AppointmentID&lt;/span&gt;" style="ellipse;whiteSpace=wrap;html=1;align=center;" parent="1" vertex="1">
          <mxGeometry x="250" y="350" width="100" height="40" as="geometry" />
        </mxCell>
        <mxCell id="9Nt-A7J87u1WiCCcCLA0-73" value="" style="endArrow=none;html=1;rounded=0;entryX=0;entryY=0.5;entryDx=0;entryDy=0;exitX=1;exitY=0.5;exitDx=0;exitDy=0;" parent="1" source="9Nt-A7J87u1WiCCcCLA0-72" target="9Nt-A7J87u1WiCCcCLA0-28" edge="1">
          <mxGeometry relative="1" as="geometry">
            <mxPoint x="360" y="380" as="sourcePoint" />
            <mxPoint x="520" y="380" as="targetPoint" />
          </mxGeometry>
        </mxCell>
        <mxCell id="9Nt-A7J87u1WiCCcCLA0-74" value="" style="endArrow=none;html=1;rounded=0;exitX=1;exitY=0.5;exitDx=0;exitDy=0;entryX=0;entryY=0.5;entryDx=0;entryDy=0;" parent="1" source="9Nt-A7J87u1WiCCcCLA0-71" target="9Nt-A7J87u1WiCCcCLA0-28" edge="1">
          <mxGeometry relative="1" as="geometry">
            <mxPoint x="360" y="380" as="sourcePoint" />
            <mxPoint x="520" y="380" as="targetPoint" />
          </mxGeometry>
        </mxCell>
        <mxCell id="9Nt-A7J87u1WiCCcCLA0-75" value="CredentialID" style="ellipse;whiteSpace=wrap;html=1;align=center;fontStyle=4;" parent="1" vertex="1">
          <mxGeometry x="400" y="1060" width="100" height="40" as="geometry" />
        </mxCell>
        <mxCell id="9Nt-A7J87u1WiCCcCLA0-76" value="" style="endArrow=none;html=1;rounded=0;entryX=0.5;entryY=1;entryDx=0;entryDy=0;exitX=0.5;exitY=0;exitDx=0;exitDy=0;" parent="1" source="9Nt-A7J87u1WiCCcCLA0-75" target="9Nt-A7J87u1WiCCcCLA0-9" edge="1">
          <mxGeometry relative="1" as="geometry">
            <mxPoint x="450" y="930" as="sourcePoint" />
            <mxPoint x="610" y="930" as="targetPoint" />
          </mxGeometry>
        </mxCell>
        <mxCell id="9Nt-A7J87u1WiCCcCLA0-77" value="&lt;span style=&quot;border-bottom: 1px dotted&quot;&gt;CredentialID&lt;/span&gt;" style="ellipse;whiteSpace=wrap;html=1;align=center;" parent="1" vertex="1">
          <mxGeometry x="350" y="920" width="100" height="40" as="geometry" />
        </mxCell>
        <mxCell id="9Nt-A7J87u1WiCCcCLA0-83" value="&lt;span style=&quot;border-bottom: 1px dotted&quot;&gt;UserID&lt;/span&gt;" style="ellipse;whiteSpace=wrap;html=1;align=center;" parent="1" vertex="1">
          <mxGeometry x="350" y="880" width="100" height="40" as="geometry" />
        </mxCell>
        <mxCell id="9Nt-A7J87u1WiCCcCLA0-84" value="" style="endArrow=none;html=1;rounded=0;entryX=0;entryY=0.5;entryDx=0;entryDy=0;exitX=1;exitY=0.5;exitDx=0;exitDy=0;" parent="1" source="9Nt-A7J87u1WiCCcCLA0-77" target="9Nt-A7J87u1WiCCcCLA0-17" edge="1">
          <mxGeometry relative="1" as="geometry">
            <mxPoint x="450" y="930" as="sourcePoint" />
            <mxPoint x="610" y="930" as="targetPoint" />
          </mxGeometry>
        </mxCell>
        <mxCell id="9Nt-A7J87u1WiCCcCLA0-85" value="" style="endArrow=none;html=1;rounded=0;entryX=1;entryY=0.5;entryDx=0;entryDy=0;exitX=0;exitY=0.5;exitDx=0;exitDy=0;" parent="1" source="9Nt-A7J87u1WiCCcCLA0-17" target="9Nt-A7J87u1WiCCcCLA0-83" edge="1">
          <mxGeometry relative="1" as="geometry">
            <mxPoint x="450" y="930" as="sourcePoint" />
            <mxPoint x="610" y="930" as="targetPoint" />
          </mxGeometry>
        </mxCell>
        <mxCell id="9Nt-A7J87u1WiCCcCLA0-86" value="AdminID" style="ellipse;whiteSpace=wrap;html=1;align=center;fontStyle=4;" parent="1" vertex="1">
          <mxGeometry x="60" y="410" width="100" height="40" as="geometry" />
        </mxCell>
        <mxCell id="9Nt-A7J87u1WiCCcCLA0-87" value="AdminName" style="ellipse;whiteSpace=wrap;html=1;align=center;" parent="1" vertex="1">
          <mxGeometry x="160" y="410" width="100" height="40" as="geometry" />
        </mxCell>
        <mxCell id="9Nt-A7J87u1WiCCcCLA0-88" value="" style="endArrow=none;html=1;rounded=0;entryX=0.5;entryY=1;entryDx=0;entryDy=0;exitX=0.5;exitY=0;exitDx=0;exitDy=0;" parent="1" source="9Nt-A7J87u1WiCCcCLA0-8" target="9Nt-A7J87u1WiCCcCLA0-87" edge="1">
          <mxGeometry relative="1" as="geometry">
            <mxPoint x="360" y="480" as="sourcePoint" />
            <mxPoint x="520" y="480" as="targetPoint" />
          </mxGeometry>
        </mxCell>
        <mxCell id="9Nt-A7J87u1WiCCcCLA0-89" value="" style="endArrow=none;html=1;rounded=0;entryX=0.5;entryY=0;entryDx=0;entryDy=0;exitX=0.5;exitY=1;exitDx=0;exitDy=0;" parent="1" source="9Nt-A7J87u1WiCCcCLA0-86" target="9Nt-A7J87u1WiCCcCLA0-8" edge="1">
          <mxGeometry relative="1" as="geometry">
            <mxPoint x="360" y="480" as="sourcePoint" />
            <mxPoint x="520" y="480" as="targetPoint" />
          </mxGeometry>
        </mxCell>
        <mxCell id="9Nt-A7J87u1WiCCcCLA0-95" value="&lt;b&gt;1&lt;/b&gt;" style="text;html=1;strokeColor=none;fillColor=none;align=center;verticalAlign=middle;whiteSpace=wrap;rounded=0;" parent="1" vertex="1">
          <mxGeometry x="80" y="40" width="20" height="20" as="geometry" />
        </mxCell>
        <mxCell id="9Nt-A7J87u1WiCCcCLA0-96" value="&lt;b&gt;1&lt;/b&gt;" style="text;html=1;strokeColor=none;fillColor=none;align=center;verticalAlign=middle;whiteSpace=wrap;rounded=0;" parent="1" vertex="1">
          <mxGeometry x="140" y="570" width="20" height="20" as="geometry" />
        </mxCell>
        <mxCell id="9Nt-A7J87u1WiCCcCLA0-97" value="&lt;b&gt;1&lt;/b&gt;" style="text;html=1;strokeColor=none;fillColor=none;align=center;verticalAlign=middle;whiteSpace=wrap;rounded=0;" parent="1" vertex="1">
          <mxGeometry x="300" y="720" width="20" height="20" as="geometry" />
        </mxCell>
        <mxCell id="9Nt-A7J87u1WiCCcCLA0-102" value="&lt;b&gt;1&lt;/b&gt;" style="text;html=1;strokeColor=none;fillColor=none;align=center;verticalAlign=middle;whiteSpace=wrap;rounded=0;" parent="1" vertex="1">
          <mxGeometry x="440" y="570" width="20" height="20" as="geometry" />
        </mxCell>
        <mxCell id="9Nt-A7J87u1WiCCcCLA0-103" value="&lt;b&gt;1&lt;/b&gt;" style="text;html=1;strokeColor=none;fillColor=none;align=center;verticalAlign=middle;whiteSpace=wrap;rounded=0;" parent="1" vertex="1">
          <mxGeometry x="550" y="970" width="20" height="20" as="geometry" />
        </mxCell>
        <mxCell id="9Nt-A7J87u1WiCCcCLA0-104" value="&lt;b&gt;M&lt;/b&gt;" style="text;html=1;strokeColor=none;fillColor=none;align=center;verticalAlign=middle;whiteSpace=wrap;rounded=0;" parent="1" vertex="1">
          <mxGeometry x="80" y="80" width="20" height="20" as="geometry" />
        </mxCell>
        <mxCell id="9Nt-A7J87u1WiCCcCLA0-105" value="&lt;b&gt;M&lt;/b&gt;" style="text;html=1;strokeColor=none;fillColor=none;align=center;verticalAlign=middle;whiteSpace=wrap;rounded=0;" parent="1" vertex="1">
          <mxGeometry x="90" y="90" width="20" height="20" as="geometry" />
        </mxCell>
        <mxCell id="9Nt-A7J87u1WiCCcCLA0-106" value="&lt;b&gt;M&lt;/b&gt;" style="text;html=1;strokeColor=none;fillColor=none;align=center;verticalAlign=middle;whiteSpace=wrap;rounded=0;" parent="1" vertex="1">
          <mxGeometry x="620" y="430" width="20" height="20" as="geometry" />
        </mxCell>
        <mxCell id="9Nt-A7J87u1WiCCcCLA0-107" value="&lt;b&gt;M&lt;/b&gt;" style="text;html=1;strokeColor=none;fillColor=none;align=center;verticalAlign=middle;whiteSpace=wrap;rounded=0;" parent="1" vertex="1">
          <mxGeometry x="440" y="430" width="20" height="20" as="geometry" />
        </mxCell>
        <mxCell id="9Nt-A7J87u1WiCCcCLA0-108" value="&lt;b&gt;M&lt;/b&gt;" style="text;html=1;strokeColor=none;fillColor=none;align=center;verticalAlign=middle;whiteSpace=wrap;rounded=0;" parent="1" vertex="1">
          <mxGeometry x="600" y="280" width="20" height="20" as="geometry" />
        </mxCell>
        <mxCell id="9Nt-A7J87u1WiCCcCLA0-109" value="&lt;b&gt;M&lt;/b&gt;" style="text;html=1;strokeColor=none;fillColor=none;align=center;verticalAlign=middle;whiteSpace=wrap;rounded=0;" parent="1" vertex="1">
          <mxGeometry x="480" y="280" width="20" height="20" as="geometry" />
        </mxCell>
        <mxCell id="BOz9idw3DWcvXm5zd3xS-1" value="Birthdate" style="ellipse;whiteSpace=wrap;html=1;align=center;" parent="1" vertex="1">
          <mxGeometry x="750" y="540" width="100" height="40" as="geometry" />
        </mxCell>
        <mxCell id="BOz9idw3DWcvXm5zd3xS-2" value="" style="endArrow=none;html=1;rounded=0;entryX=0;entryY=0.5;entryDx=0;entryDy=0;exitX=1;exitY=0.5;exitDx=0;exitDy=0;" parent="1" source="9Nt-A7J87u1WiCCcCLA0-6" target="BOz9idw3DWcvXm5zd3xS-1" edge="1">
          <mxGeometry relative="1" as="geometry">
            <mxPoint x="380" y="590" as="sourcePoint" />
            <mxPoint x="540" y="590" as="targetPoint" />
          </mxGeometry>
        </mxCell>
        <mxCell id="Jl5cKJMcSYmuPTz_EsKj-1" value="GeneralUser" style="whiteSpace=wrap;html=1;align=center;" parent="1" vertex="1">
          <mxGeometry x="500" y="790" width="100" height="40" as="geometry" />
        </mxCell>
        <mxCell id="Jl5cKJMcSYmuPTz_EsKj-2" value="UserID" style="ellipse;whiteSpace=wrap;html=1;align=center;fontStyle=4;" parent="1" vertex="1">
          <mxGeometry x="350" y="790" width="100" height="40" as="geometry" />
        </mxCell>
        <mxCell id="Jl5cKJMcSYmuPTz_EsKj-3" value="" style="endArrow=none;html=1;rounded=0;entryX=0;entryY=0.5;entryDx=0;entryDy=0;exitX=1;exitY=0.5;exitDx=0;exitDy=0;" parent="1" source="Jl5cKJMcSYmuPTz_EsKj-2" target="Jl5cKJMcSYmuPTz_EsKj-1" edge="1">
          <mxGeometry relative="1" as="geometry">
            <mxPoint x="430" y="820" as="sourcePoint" />
            <mxPoint x="590" y="820" as="targetPoint" />
          </mxGeometry>
        </mxCell>
        <mxCell id="Jl5cKJMcSYmuPTz_EsKj-4" value="" style="endArrow=none;html=1;rounded=0;entryX=0.5;entryY=1;entryDx=0;entryDy=0;exitX=0.5;exitY=0;exitDx=0;exitDy=0;" parent="1" source="9Nt-A7J87u1WiCCcCLA0-17" target="Jl5cKJMcSYmuPTz_EsKj-1" edge="1">
          <mxGeometry relative="1" as="geometry">
            <mxPoint x="430" y="890" as="sourcePoint" />
            <mxPoint x="590" y="890" as="targetPoint" />
          </mxGeometry>
        </mxCell>
        <mxCell id="Jl5cKJMcSYmuPTz_EsKj-6" value="is" style="shape=rhombus;perimeter=rhombusPerimeter;whiteSpace=wrap;html=1;align=center;" parent="1" vertex="1">
          <mxGeometry x="400" y="620" width="120" height="60" as="geometry" />
        </mxCell>
        <mxCell id="Jl5cKJMcSYmuPTz_EsKj-9" value="is" style="shape=rhombus;perimeter=rhombusPerimeter;whiteSpace=wrap;html=1;align=center;" parent="1" vertex="1">
          <mxGeometry x="100" y="620" width="120" height="60" as="geometry" />
        </mxCell>
        <mxCell id="Jl5cKJMcSYmuPTz_EsKj-10" value="is" style="shape=rhombus;perimeter=rhombusPerimeter;whiteSpace=wrap;html=1;align=center;" parent="1" vertex="1">
          <mxGeometry x="580" y="620" width="120" height="60" as="geometry" />
        </mxCell>
        <mxCell id="Jl5cKJMcSYmuPTz_EsKj-11" value="" style="endArrow=none;html=1;rounded=0;entryX=0.5;entryY=0;entryDx=0;entryDy=0;exitX=0.5;exitY=1;exitDx=0;exitDy=0;" parent="1" source="9Nt-A7J87u1WiCCcCLA0-6" target="Jl5cKJMcSYmuPTz_EsKj-10" edge="1">
          <mxGeometry relative="1" as="geometry">
            <mxPoint x="340" y="680" as="sourcePoint" />
            <mxPoint x="500" y="680" as="targetPoint" />
          </mxGeometry>
        </mxCell>
        <mxCell id="Jl5cKJMcSYmuPTz_EsKj-12" value="" style="endArrow=none;html=1;rounded=0;exitX=0.5;exitY=0;exitDx=0;exitDy=0;entryX=0.5;entryY=1;entryDx=0;entryDy=0;" parent="1" source="Jl5cKJMcSYmuPTz_EsKj-9" target="9Nt-A7J87u1WiCCcCLA0-8" edge="1">
          <mxGeometry relative="1" as="geometry">
            <mxPoint x="340" y="680" as="sourcePoint" />
            <mxPoint x="500" y="680" as="targetPoint" />
          </mxGeometry>
        </mxCell>
        <mxCell id="Jl5cKJMcSYmuPTz_EsKj-13" value="" style="endArrow=none;html=1;rounded=0;entryX=0.5;entryY=1;entryDx=0;entryDy=0;exitX=0.5;exitY=0;exitDx=0;exitDy=0;" parent="1" source="Jl5cKJMcSYmuPTz_EsKj-1" target="Jl5cKJMcSYmuPTz_EsKj-10" edge="1">
          <mxGeometry relative="1" as="geometry">
            <mxPoint x="340" y="780" as="sourcePoint" />
            <mxPoint x="500" y="780" as="targetPoint" />
          </mxGeometry>
        </mxCell>
        <mxCell id="Jl5cKJMcSYmuPTz_EsKj-14" value="" style="endArrow=none;html=1;rounded=0;entryX=0.5;entryY=0;entryDx=0;entryDy=0;exitX=0.5;exitY=1;exitDx=0;exitDy=0;" parent="1" source="Jl5cKJMcSYmuPTz_EsKj-9" target="Jl5cKJMcSYmuPTz_EsKj-1" edge="1">
          <mxGeometry relative="1" as="geometry">
            <mxPoint x="340" y="780" as="sourcePoint" />
            <mxPoint x="500" y="780" as="targetPoint" />
          </mxGeometry>
        </mxCell>
        <mxCell id="Jl5cKJMcSYmuPTz_EsKj-15" value="" style="endArrow=none;html=1;rounded=0;entryX=0.5;entryY=1;entryDx=0;entryDy=0;exitX=0.5;exitY=0;exitDx=0;exitDy=0;" parent="1" source="Jl5cKJMcSYmuPTz_EsKj-1" target="Jl5cKJMcSYmuPTz_EsKj-6" edge="1">
          <mxGeometry relative="1" as="geometry">
            <mxPoint x="340" y="780" as="sourcePoint" />
            <mxPoint x="500" y="780" as="targetPoint" />
          </mxGeometry>
        </mxCell>
        <mxCell id="Jl5cKJMcSYmuPTz_EsKj-18" value="&lt;span style=&quot;border-bottom: 1px dotted&quot;&gt;AdminID&lt;/span&gt;" style="ellipse;whiteSpace=wrap;html=1;align=center;" parent="1" vertex="1">
          <mxGeometry y="600" width="100" height="40" as="geometry" />
        </mxCell>
        <mxCell id="Jl5cKJMcSYmuPTz_EsKj-19" value="&lt;span style=&quot;border-bottom: 1px dotted&quot;&gt;UserID&lt;/span&gt;" style="ellipse;whiteSpace=wrap;html=1;align=center;" parent="1" vertex="1">
          <mxGeometry y="670" width="100" height="40" as="geometry" />
        </mxCell>
        <mxCell id="Jl5cKJMcSYmuPTz_EsKj-20" value="" style="endArrow=none;html=1;rounded=0;exitX=0;exitY=0.5;exitDx=0;exitDy=0;entryX=0.5;entryY=0;entryDx=0;entryDy=0;" parent="1" source="Jl5cKJMcSYmuPTz_EsKj-9" target="Jl5cKJMcSYmuPTz_EsKj-19" edge="1">
          <mxGeometry relative="1" as="geometry">
            <mxPoint x="340" y="680" as="sourcePoint" />
            <mxPoint x="500" y="680" as="targetPoint" />
          </mxGeometry>
        </mxCell>
        <mxCell id="Jl5cKJMcSYmuPTz_EsKj-21" value="" style="endArrow=none;html=1;rounded=0;exitX=0.5;exitY=1;exitDx=0;exitDy=0;entryX=0;entryY=0.5;entryDx=0;entryDy=0;" parent="1" source="Jl5cKJMcSYmuPTz_EsKj-18" target="Jl5cKJMcSYmuPTz_EsKj-9" edge="1">
          <mxGeometry relative="1" as="geometry">
            <mxPoint x="340" y="680" as="sourcePoint" />
            <mxPoint x="500" y="680" as="targetPoint" />
          </mxGeometry>
        </mxCell>
        <mxCell id="Jl5cKJMcSYmuPTz_EsKj-23" value="&lt;span style=&quot;border-bottom: 1px dotted&quot;&gt;ProviderID&lt;/span&gt;" style="ellipse;whiteSpace=wrap;html=1;align=center;" parent="1" vertex="1">
          <mxGeometry x="260" y="610" width="100" height="40" as="geometry" />
        </mxCell>
        <mxCell id="Jl5cKJMcSYmuPTz_EsKj-24" value="&lt;span style=&quot;border-bottom: 1px dotted&quot;&gt;UserID&lt;/span&gt;" style="ellipse;whiteSpace=wrap;html=1;align=center;" parent="1" vertex="1">
          <mxGeometry x="260" y="650" width="100" height="40" as="geometry" />
        </mxCell>
        <mxCell id="Jl5cKJMcSYmuPTz_EsKj-25" value="" style="endArrow=none;html=1;rounded=0;entryX=0;entryY=0.5;entryDx=0;entryDy=0;exitX=1;exitY=0.5;exitDx=0;exitDy=0;" parent="1" source="Jl5cKJMcSYmuPTz_EsKj-23" target="Jl5cKJMcSYmuPTz_EsKj-6" edge="1">
          <mxGeometry relative="1" as="geometry">
            <mxPoint x="340" y="680" as="sourcePoint" />
            <mxPoint x="500" y="680" as="targetPoint" />
          </mxGeometry>
        </mxCell>
        <mxCell id="Jl5cKJMcSYmuPTz_EsKj-26" value="" style="endArrow=none;html=1;rounded=0;entryX=0;entryY=0.5;entryDx=0;entryDy=0;exitX=1;exitY=0.5;exitDx=0;exitDy=0;" parent="1" source="Jl5cKJMcSYmuPTz_EsKj-24" target="Jl5cKJMcSYmuPTz_EsKj-6" edge="1">
          <mxGeometry relative="1" as="geometry">
            <mxPoint x="340" y="680" as="sourcePoint" />
            <mxPoint x="500" y="680" as="targetPoint" />
          </mxGeometry>
        </mxCell>
        <mxCell id="Jl5cKJMcSYmuPTz_EsKj-28" value="&lt;span style=&quot;border-bottom: 1px dotted&quot;&gt;ClientID&lt;/span&gt;" style="ellipse;whiteSpace=wrap;html=1;align=center;" parent="1" vertex="1">
          <mxGeometry x="750" y="610" width="100" height="40" as="geometry" />
        </mxCell>
        <mxCell id="Jl5cKJMcSYmuPTz_EsKj-29" value="&lt;span style=&quot;border-bottom: 1px dotted&quot;&gt;UserID&lt;/span&gt;" style="ellipse;whiteSpace=wrap;html=1;align=center;" parent="1" vertex="1">
          <mxGeometry x="750" y="650" width="100" height="40" as="geometry" />
        </mxCell>
        <mxCell id="Jl5cKJMcSYmuPTz_EsKj-30" value="" style="endArrow=none;html=1;rounded=0;entryX=0;entryY=0.5;entryDx=0;entryDy=0;exitX=1;exitY=0.5;exitDx=0;exitDy=0;" parent="1" source="Jl5cKJMcSYmuPTz_EsKj-10" target="Jl5cKJMcSYmuPTz_EsKj-29" edge="1">
          <mxGeometry relative="1" as="geometry">
            <mxPoint x="340" y="680" as="sourcePoint" />
            <mxPoint x="500" y="680" as="targetPoint" />
          </mxGeometry>
        </mxCell>
        <mxCell id="Jl5cKJMcSYmuPTz_EsKj-31" value="" style="endArrow=none;html=1;rounded=0;entryX=0;entryY=0.5;entryDx=0;entryDy=0;exitX=1;exitY=0.5;exitDx=0;exitDy=0;" parent="1" source="Jl5cKJMcSYmuPTz_EsKj-10" target="Jl5cKJMcSYmuPTz_EsKj-28" edge="1">
          <mxGeometry relative="1" as="geometry">
            <mxPoint x="340" y="680" as="sourcePoint" />
            <mxPoint x="500" y="680" as="targetPoint" />
          </mxGeometry>
        </mxCell>
        <mxCell id="Jl5cKJMcSYmuPTz_EsKj-32" value="&lt;b&gt;1&lt;/b&gt;" style="text;html=1;strokeColor=none;fillColor=none;align=center;verticalAlign=middle;whiteSpace=wrap;rounded=0;" parent="1" vertex="1">
          <mxGeometry x="620" y="570" width="20" height="20" as="geometry" />
        </mxCell>
        <mxCell id="Jl5cKJMcSYmuPTz_EsKj-33" value="&lt;b&gt;1&lt;/b&gt;" style="text;html=1;strokeColor=none;fillColor=none;align=center;verticalAlign=middle;whiteSpace=wrap;rounded=0;" parent="1" vertex="1">
          <mxGeometry x="480" y="720" width="20" height="20" as="geometry" />
        </mxCell>
        <mxCell id="Jl5cKJMcSYmuPTz_EsKj-34" value="&lt;b&gt;1&lt;/b&gt;" style="text;html=1;strokeColor=none;fillColor=none;align=center;verticalAlign=middle;whiteSpace=wrap;rounded=0;" parent="1" vertex="1">
          <mxGeometry x="600" y="720" width="20" height="20" as="geometry" />
        </mxCell>
      </root>
    </mxGraphModel>
  </diagram>
</mxfile>
